<?xml version="1.0" encoding="UTF-8" standalone="no"?>
<svg
   xmlns:dc="http://purl.org/dc/elements/1.1/"
   xmlns:cc="http://creativecommons.org/ns#"
   xmlns:rdf="http://www.w3.org/1999/02/22-rdf-syntax-ns#"
   xmlns:svg="http://www.w3.org/2000/svg"
   xmlns="http://www.w3.org/2000/svg"
   xmlns:sodipodi="http://sodipodi.sourceforge.net/DTD/sodipodi-0.dtd"
   xmlns:inkscape="http://www.inkscape.org/namespaces/inkscape"
   version="1.1"
   width="96"
   height="48"
   id="svg49"
   sodipodi:docname="logo.svg"
   inkscape:version="0.92.4 (5da689c313, 2019-01-14)">
  <metadata
     id="metadata53">
    <rdf:RDF>
      <cc:Work
         rdf:about="">
        <dc:format>image/svg+xml</dc:format>
        <dc:type
           rdf:resource="http://purl.org/dc/dcmitype/StillImage" />
        <dc:title></dc:title>
      </cc:Work>
    </rdf:RDF>
  </metadata>
  <sodipodi:namedview
     pagecolor="#ffffff"
     bordercolor="#666666"
     borderopacity="1"
     objecttolerance="10"
     gridtolerance="10"
     guidetolerance="10"
     inkscape:pageopacity="0"
     inkscape:pageshadow="2"
     inkscape:window-width="1920"
     inkscape:window-height="1021"
     id="namedview51"
     showgrid="false"
     inkscape:zoom="6.9532167"
     inkscape:cx="52.677966"
     inkscape:cy="16.790362"
     inkscape:window-x="0"
     inkscape:window-y="0"
     inkscape:window-maximized="1"
     inkscape:current-layer="g47" />
  <defs
     id="defs25">
    <linearGradient
       x1="11.08449"
       y1="13.3637"
       x2="54.025917"
       y2="63.136536"
       gradientUnits="userSpaceOnUse"
       id="color-1">
      <stop
         offset="0"
         stop-color="#000000"
         stop-opacity="0.3"
         id="stop2" />
      <stop
         offset="1"
         stop-color="#000000"
         stop-opacity="0"
         id="stop4" />
    </linearGradient>
    <filter
       id="dropshadow-base">
      <feColorMatrix
         type="matrix"
         values="0 0 0 0 0  0 0 0 0 0  0 0 0 0 0  0 0 0 .8 0"
         id="feColorMatrix7" />
      <feOffset
         dx="0"
         dy="1"
         id="feOffset9" />
      <feGaussianBlur
         stdDeviation="1"
         id="feGaussianBlur11"
         result="result1" />
      <feComposite
         in="SourceGraphic"
         in2="result1"
         id="feComposite13" />
    </filter>
    <filter
       id="dropshadow-banner"
       x="-0.1"
       y="-0.1"
       width="1.2"
       height="1.3">
      <feColorMatrix
         type="matrix"
         values="0 0 0 0 0  0 0 0 0 0  0 0 0 0 0  0 0 0 .4 0"
         id="feColorMatrix16" />
      <feOffset
         dx="0"
         dy="1"
         id="feOffset18" />
      <feGaussianBlur
         stdDeviation="0.5"
         id="feGaussianBlur20"
         result="result1" />
      <feComposite
         in="SourceGraphic"
         in2="result1"
         id="feComposite22" />
    </filter>
  </defs>
  <g
     stroke-width="none"
     stroke-miterlimit="10"
     font-weight="none"
     font-size="none"
     text-anchor="none"
     style="font-family:none;mix-blend-mode:normal;fill:none;fill-rule:nonzero;stroke:none;stroke-linecap:butt;stroke-linejoin:miter;stroke-miterlimit:10;stroke-dasharray:none;stroke-dashoffset:0"
     id="g47">
    <path
       d="M 9.5263162,43 C 7.0264994,43 5,42.10457 5,41 V 7 C 5,5.89543 7.0264994,5 9.5263162,5 H 86.473684 C 88.9735,5 91,5.89543 91,7 v 34 c 0,1.10457 -2.0265,2 -4.526316,2 z"
       id="base 1 5 1"
       inkscape:connector-curvature="0"
       style="fill:#9c27b0;stroke-width:1.50437951" />
    <path
       d="m 11.08449,20.96106 h 6.07788 l 6.07788,6.07788 h 3.03894 L 18.68183,19.44158 V 13.3637 H 36.9155 L 62.932193,43.04141 C 44.905681,42.861615 32.613848,42.820955 19.44818,43 l -8.3637,-8.3637 v -6.07788 h 1.51947 l -1.51947,-1.51947 z"
       id="path28"
       inkscape:connector-curvature="0"
       style="fill:url(#color-1);stroke-width:1"
       sodipodi:nodetypes="cccccccccccccc" />
    <path
       d="m 11.08449,27.03894 h 6.07789 v -6.07789 h -6.07789 z m 0,7.59736 h 6.07789 v -6.07789 h -6.07789 z m 0,-15.19472 h 6.07789 v -6.07789 h -6.07789 z m 7.59736,7.59736 H 36.91551 V 20.96105 H 18.68185 Z m 0,7.59736 H 36.91551 V 28.55841 H 18.68185 Z m 0,-21.2726 v 6.07789 H 36.91551 V 13.3637 Z"
       id="path30"
       inkscape:connector-curvature="0"
       style="fill:none;stroke-width:0" />
    <path
       d="m 11.08449,20.96106 h 6.07789 v 6.07789 h -6.07789 z m 0,7.59736 h 6.07789 v 6.07789 h -6.07789 z m 0,-15.19472 h 6.07789 v 6.07789 h -6.07789 z m 7.59736,7.59736 h 18.23366 v 6.07789 H 18.68185 Z m 0,7.59736 h 18.23366 v 6.07789 H 18.68185 Z M 36.91551,13.3637 v 6.07789 H 18.68185 V 13.3637 Z"
       id="path32"
       inkscape:connector-curvature="0"
       style="fill:#fafafa;stroke-width:0" />
    <path
       d="M 2,24 C 2,11.84974 11.84974,2 24,2 36.15026,2 46,11.84974 46,24 46,36.15026 36.15026,46 24,46 11.84974,46 2,36.15026 2,24 Z"
       id="base 1 1 1"
       inkscape:connector-curvature="0"
       style="fill:none;stroke-width:1" />
    <g
       font-weight="400"
       font-size="14"
       id="g35"
       style="font-weight:400;font-size:14px;font-family:Roboto, sans-serif;text-anchor:start;fill:#000000;stroke-width:1" />
    <rect
       x="2"
       y="2"
       width="44"
       height="22"
       id="rect37"
       style="fill:none;stroke-width:1" />
    <path
       d="M 2,24 V 2 h 44 v 22 z"
       id="path39"
       inkscape:connector-curvature="0"
       style="fill:none;stroke-width:1" />
    <path
       d="M 2,24 V 2 h 44 v 22 z"
       id="path41"
       inkscape:connector-curvature="0"
       style="fill:none;stroke-width:1" />
    <path
       d="M 2,24 V 2 h 44 v 22 z"
       id="path43"
       inkscape:connector-curvature="0"
       style="fill:none;stroke-width:1" />
    <path
       d="M 2,24 V 2 h 44 v 22 z"
       id="path45"
       inkscape:connector-curvature="0"
       style="fill:none;stroke-width:1" />
    <text
       xml:space="preserve"
       style="font-style:normal;font-variant:normal;font-weight:normal;font-stretch:normal;font-size:40px;line-height:0;font-family:'Roboto Light';-inkscape-font-specification:'Roboto Light, ';letter-spacing:0px;word-spacing:0px;fill:#000000;fill-opacity:1;stroke:none"
       x="39.981495"
       y="30.544271"
       id="text862"><tspan
         sodipodi:role="line"
         id="tspan860"
         x="39.981495"
         y="30.544271"
         style="font-size:18.66666603px;fill:#fafafa;fill-opacity:1">Notes</tspan></text>
  </g>
</svg>
