<svg xmlns="http://www.w3.org/2000/svg" xmlns:svg="http://www.w3.org/2000/svg" id="svg49" width="96" height="48" version="1.1"><metadata id="metadata53"/><defs id="defs25"><linearGradient id="color-1" x1="11.084" x2="54.026" y1="13.364" y2="63.137" gradientUnits="userSpaceOnUse"><stop id="stop2" offset="0" stop-color="#000" stop-opacity=".3"/><stop id="stop4" offset="1" stop-color="#000" stop-opacity="0"/></linearGradient><filter id="dropshadow-base"><feColorMatrix id="feColorMatrix7" type="matrix" values="0 0 0 0 0 0 0 0 0 0 0 0 0 0 0 0 0 0 .8 0"/><feOffset id="feOffset9" dx="0" dy="1"/><feGaussianBlur id="feGaussianBlur11" result="result1" stdDeviation="1"/><feComposite id="feComposite13" in="SourceGraphic" in2="result1"/></filter><filter id="dropshadow-banner" width="1.2" height="1.3" x="-.1" y="-.1"><feColorMatrix id="feColorMatrix16" type="matrix" values="0 0 0 0 0 0 0 0 0 0 0 0 0 0 0 0 0 0 .4 0"/><feOffset id="feOffset18" dx="0" dy="1"/><feGaussianBlur id="feGaussianBlur20" result="result1" stdDeviation=".5"/><feComposite id="feComposite22" in="SourceGraphic" in2="result1"/></filter></defs><g style="font-family:none;mix-blend-mode:normal;fill:none;fill-rule:nonzero;stroke:none;stroke-linecap:butt;stroke-linejoin:miter;stroke-miterlimit:10;stroke-dasharray:none;stroke-dashoffset:0" id="g47" stroke-miterlimit="10" stroke-width="none" font-size="none" font-weight="none" text-anchor="none"><path id="base 1 5 1" d="M 9.5263162,43 C 7.0264994,43 5,42.10457 5,41 V 7 C 5,5.89543 7.0264994,5 9.5263162,5 H 86.473684 C 88.9735,5 91,5.89543 91,7 v 34 c 0,1.10457 -2.0265,2 -4.526316,2 z" style="fill:#9c27b0;stroke-width:1.50437951"/><path id="path28" d="m 11.08449,20.96106 h 6.07788 l 6.07788,6.07788 h 3.03894 L 18.68183,19.44158 V 13.3637 H 36.9155 L 62.932193,43.04141 C 44.905681,42.861615 32.613848,42.820955 19.44818,43 l -8.3637,-8.3637 v -6.07788 h 1.51947 l -1.51947,-1.51947 z" style="fill:url(#color-1);stroke-width:1"/><path id="path30" d="m 11.08449,27.03894 h 6.07789 v -6.07789 h -6.07789 z m 0,7.59736 h 6.07789 v -6.07789 h -6.07789 z m 0,-15.19472 h 6.07789 v -6.07789 h -6.07789 z m 7.59736,7.59736 H 36.91551 V 20.96105 H 18.68185 Z m 0,7.59736 H 36.91551 V 28.55841 H 18.68185 Z m 0,-21.2726 v 6.07789 H 36.91551 V 13.3637 Z" style="fill:none;stroke-width:0"/><path id="path32" d="m 11.08449,20.96106 h 6.07789 v 6.07789 h -6.07789 z m 0,7.59736 h 6.07789 v 6.07789 h -6.07789 z m 0,-15.19472 h 6.07789 v 6.07789 h -6.07789 z m 7.59736,7.59736 h 18.23366 v 6.07789 H 18.68185 Z m 0,7.59736 h 18.23366 v 6.07789 H 18.68185 Z M 36.91551,13.3637 v 6.07789 H 18.68185 V 13.3637 Z" style="fill:#fafafa;stroke-width:0"/><path id="base 1 1 1" d="M 2,24 C 2,11.84974 11.84974,2 24,2 36.15026,2 46,11.84974 46,24 46,36.15026 36.15026,46 24,46 11.84974,46 2,36.15026 2,24 Z" style="fill:none;stroke-width:1"/><rect id="rect37" width="44" height="22" x="2" y="2" style="fill:none;stroke-width:1"/><path id="path39" d="M 2,24 V 2 h 44 v 22 z" style="fill:none;stroke-width:1"/><path id="path41" d="M 2,24 V 2 h 44 v 22 z" style="fill:none;stroke-width:1"/><path id="path43" d="M 2,24 V 2 h 44 v 22 z" style="fill:none;stroke-width:1"/><path id="path45" d="M 2,24 V 2 h 44 v 22 z" style="fill:none;stroke-width:1"/><text style="font-style:normal;font-variant:normal;font-weight:400;font-stretch:normal;font-size:40px;line-height:0;font-family:'Roboto Light';-inkscape-font-specification:'Roboto Light, ';letter-spacing:0;word-spacing:0;fill:#000;fill-opacity:1;stroke:none" id="text862" x="39.981" y="30.544" xml:space="preserve"><tspan id="tspan860" x="39.981" y="30.544" style="font-size:18.66666603px;fill:#fafafa;fill-opacity:1">Notes</tspan></text></g></svg>