<svg xmlns="http://www.w3.org/2000/svg" xmlns:svg="http://www.w3.org/2000/svg" id="svg49" width="48" height="48" version="1.1"><metadata id="metadata53"/><defs id="defs25"><linearGradient id="color-1" x1="11.084" x2="64.958" y1="13.364" y2="62.679" gradientUnits="userSpaceOnUse"><stop id="stop2" offset="0" stop-color="#000" stop-opacity=".3"/><stop id="stop4" offset="1" stop-color="#000" stop-opacity="0"/></linearGradient><filter id="dropshadow-base"><feColorMatrix id="feColorMatrix7" type="matrix" values="0 0 0 0 0 0 0 0 0 0 0 0 0 0 0 0 0 0 .8 0"/><feOffset id="feOffset9" dx="0" dy="1"/><feGaussianBlur id="feGaussianBlur11" result="result1" stdDeviation="1"/><feComposite id="feComposite13" in="SourceGraphic" in2="result1"/></filter><filter id="dropshadow-banner" width="120%" height="130%" x="-10%" y="-10%"><feColorMatrix id="feColorMatrix16" type="matrix" values="0 0 0 0 0 0 0 0 0 0 0 0 0 0 0 0 0 0 .4 0"/><feOffset id="feOffset18" dx="0" dy="1"/><feGaussianBlur id="feGaussianBlur20" result="result1" stdDeviation=".5"/><feComposite id="feComposite22" in="SourceGraphic" in2="result1"/></filter></defs><g stroke-miterlimit="10" style="mix-blend-mode:normal" id="g47" fill="none" fill-rule="nonzero" stroke="none" stroke-dashoffset="0" stroke-linecap="butt" stroke-linejoin="miter" stroke-width="none" font-family="none" font-size="none" font-weight="none" text-anchor="none"><path id="base 1 5 1" fill="#9c27b0" stroke-width="1" d="M7,43c-1.10457,0 -2,-0.89543 -2,-2v-34c0,-1.10457 0.89543,-2 2,-2h34c1.10457,0 2,0.89543 2,2v34c0,1.10457 -0.89543,2 -2,2z"/><path id="path28" fill="url(#color-1)" stroke-width="1" d="M11.08449,20.96106h6.07788l6.07788,6.07788h3.03894l-7.59736,-7.59736v-6.07788l18.23367,0l6.08449,6.08449v21.55181c0,1.10457 -0.89543,2 -2,2h-21.55181l-8.3637,-8.3637v-6.07788l1.51947,0l-1.51947,-1.51947z"/><path id="path30" fill="none" stroke-width="0" d="M11.08449,27.03894h6.07789v-6.07789h-6.07789zM11.08449,34.6363h6.07789v-6.07789h-6.07789zM11.08449,19.44158h6.07789v-6.07789h-6.07789zM18.68185,27.03894h18.23366v-6.07789h-18.23366zM18.68185,34.6363h18.23366v-6.07789h-18.23366zM18.68185,13.3637v6.07789h18.23366v-6.07789z"/><path id="path32" fill="#fafafa" stroke-width="0" d="M11.08449,20.96106h6.07789v6.07789h-6.07789zM11.08449,28.55842h6.07789v6.07789h-6.07789zM11.08449,13.3637h6.07789v6.07789h-6.07789zM18.68185,20.96106h18.23366v6.07789h-18.23366zM18.68185,28.55842h18.23366v6.07789h-18.23366zM36.91551,13.3637v6.07789h-18.23366v-6.07789z"/><path id="base 1 1 1" fill="none" stroke-width="1" d="M2,24c0,-12.15026 9.84974,-22 22,-22c12.15026,0 22,9.84974 22,22c0,12.15026 -9.84974,22 -22,22c-12.15026,0 -22,-9.84974 -22,-22z"/><rect id="rect37" width="44" height="22" x="2" y="2" fill="none" stroke-width="1"/><path id="path39" fill="none" stroke-width="1" d="M2,24v-22h44v22z"/><path id="path41" fill="none" stroke-width="1" d="M2,24v-22h44v22z"/><path id="path43" fill="none" stroke-width="1" d="M2,24v-22h44v22z"/><path id="path45" fill="none" stroke-width="1" d="M2,24v-22h44v22z"/></g></svg>