<svg xmlns="http://www.w3.org/2000/svg" viewBox="0 0 160 160" role="img" aria-labelledby="title"><title id="title">Notes</title><defs><linearGradient id="paper" x1="54" x2="126" y1="28" y2="132" gradientUnits="userSpaceOnUse"><stop stop-color="#fff"/><stop offset="1" stop-color="#eef6ff"/></linearGradient><linearGradient id="binding" x1="35" x2="58" y1="32" y2="128" gradientUnits="userSpaceOnUse"><stop stop-color="#8bd7ff"/><stop offset="1" stop-color="#4f9cff"/></linearGradient></defs><path fill="url(#paper)" d="M50 22h60l28 28v86a10 10 0 0 1-10 10H50a10 10 0 0 1-10-10V32a10 10 0 0 1 10-10Z"/><path fill="#cfe4ff" d="M110 22v27a8 8 0 0 0 8 8h20Z"/><path fill="#fff" fill-opacity=".72" d="M117 50h19l-26-28v21a7 7 0 0 0 7 7Z"/><path fill="url(#binding)" d="M29 34h26v98H29a7 7 0 0 1-7-7V41a7 7 0 0 1 7-7Z"/><path fill="#1f3b57" d="M68 70h52v7H68zm0 22h52v7H68zm0 22h36v7H68z"/><path fill="#d8ecff" d="M55 34h8v98h-8z"/><g fill="none" stroke="#1f3b57" stroke-linecap="round" stroke-width="5"><path d="M35 48h21"/><path d="M35 67h21"/><path d="M35 86h21"/><path d="M35 105h21"/><path d="M35 124h21"/></g></svg>
